<?xml version="1.0" encoding="utf-8"?>
<!-- Generator: Adobe Illustrator 19.2.0, SVG Export Plug-In . SVG Version: 6.00 Build 0)  -->
<svg version="1.1" id="Capa_1" xmlns="http://www.w3.org/2000/svg" xmlns:xlink="http://www.w3.org/1999/xlink" x="0px" y="0px"
	 viewBox="0 0 69.7 34.6" style="enable-background:new 0 0 69.7 34.6;" xml:space="preserve">
<style type="text/css">
	.st0{fill:#FFFFFF;}
</style>
<path class="st0" d="M66.2,19.2c0.3-0.3,0.4-0.7,0.4-1.1c0-0.4-0.1-0.8-0.4-1.1L54.3,5c-0.6-0.6-1.5-0.6-2.1,0
	c-0.6,0.6-0.6,1.5,0,2.1l9.3,9.4H5.7c-0.8,0-1.5,0.7-1.5,1.5s0.7,1.5,1.5,1.5h55.9l-9.5,9.4c-0.6,0.6-0.6,1.5,0,2.1
	c0.6,0.6,1.5,0.6,2.1,0L66.2,19.2z"/>
</svg>
