<!-- Generator: Adobe Illustrator 19.2.0, SVG Export Plug-In  -->
<svg version="1.1"
	 xmlns="http://www.w3.org/2000/svg" xmlns:xlink="http://www.w3.org/1999/xlink" xmlns:a="http://ns.adobe.com/AdobeSVGViewerExtensions/3.0/"
	 x="0px" y="0px" width="270.553px" height="235.397px" viewBox="0 0 270.553 235.397"
	 style="enable-background:new 0 0 270.553 235.397;" xml:space="preserve">
<style type="text/css">
	.st0{fill:#101E2D;}
</style>
<defs>
</defs>
<g>
	<polygon class="st0" points="115.258,84.892 0,84.892 0,79.499 114.527,79.499 	"/>
	<rect x="186.927" y="174.506" class="st0" width="83.626" height="5.409"/>
	<rect x="148.698" y="42.281" class="st0" width="55.321" height="5.393"/>
	<path class="st0" d="M28.469,38.407c1.924-3.535,3.401-8.281,4.432-14.235h-8.057c-1.254,7.117-2.899,12.086-4.935,14.906
		c-2.037,2.821-4.532,4.23-7.487,4.23H8.729l3.357-19.137H4.029L0,47.002c1.566,0.494,3.245,0.839,5.036,1.041
		c1.79,0.201,3.961,0.303,6.513,0.303c3.805,0,7.094-0.773,9.87-2.317C24.194,44.484,26.544,41.944,28.469,38.407z"/>
	<polygon class="st0" points="60.162,47.673 61.102,42.302 44.651,42.302 47.539,25.851 61.975,25.851 62.268,24.173 39.783,24.173 
		35.654,47.673 	"/>
	<path class="st0" d="M93.265,35.588c0.178-1.029,0.268-2.059,0.268-3.089c0-2.014-0.392-3.703-1.175-5.069
		c-0.784-1.365-1.746-2.451-2.887-3.257H74.229c1.152,0.79,2.659,1.684,4.532,2.686c2.193,1.119,3.838,2.183,4.935,3.19
		c1.096,1.007,1.645,2.362,1.645,4.063c0,0.268-0.045,0.762-0.134,1.477c-0.448,2.597-1.534,4.532-3.257,5.808
		c-1.724,1.276-4.22,1.914-7.487,1.914h-9.4l-0.672,3.693c1.074,0.359,2.552,0.672,4.432,0.94c1.88,0.268,3.917,0.403,6.11,0.403
		c5.55,0,9.814-1.085,12.792-3.257C90.701,42.918,92.548,39.751,93.265,35.588z"/>
	<path class="st0" d="M125.561,38.407c1.924-3.535,3.401-8.281,4.432-14.235h-8.057c-1.254,7.117-2.899,12.086-4.935,14.906
		c-2.037,2.821-4.532,4.23-7.487,4.23h-3.693l3.357-19.137h-8.057l-4.029,22.829c1.566,0.494,3.245,0.839,5.036,1.041
		c1.79,0.201,3.961,0.303,6.513,0.303c3.805,0,7.094-0.773,9.87-2.317C121.286,44.484,123.636,41.944,125.561,38.407z"/>
	<polygon class="st0" points="157.254,47.673 158.194,42.302 141.743,42.302 144.63,25.851 159.066,25.851 159.36,24.173 
		136.875,24.173 132.745,47.673 	"/>
	<path class="st0" d="M34.346,101.308c2.171-2.821,4.823-4.23,7.957-4.23h8.057l0.671-3.693c-1.03-0.358-2.484-0.672-4.364-0.94
		c-1.88-0.268-3.917-0.403-6.11-0.403c-3.402,0-6.335,0.728-8.796,2.183c-2.462,1.455-4.577,3.951-6.345,7.486
		c-1.769,3.537-3.19,8.372-4.264,14.504h8.057C30.462,109.097,32.174,104.129,34.346,101.308z"/>
	<polygon class="st0" points="68.086,103.457 68.354,103.457 69.07,116.214 77.049,116.214 75.135,92.713 65.064,92.713 
		54.891,116.214 62.759,116.214 	"/>
	<path class="st0" d="M108.305,114.67l0.067-0.268c2.148-0.94,3.95-2.317,5.405-4.13c1.454-1.813,2.361-3.748,2.72-5.808
		c0.178-0.895,0.268-1.835,0.268-2.821c0-3.088-1.064-5.46-3.19-7.117c-2.126-1.655-5.338-2.484-9.635-2.484
		c-2.551,0-4.757,0.101-6.614,0.303c-1.858,0.201-3.659,0.549-5.405,1.041l-4.029,22.829h23.284
		C110.351,115.584,109.398,115.065,108.305,114.67z M108.037,104.799c-0.448,2.508-1.41,4.421-2.887,5.741
		c-1.477,1.321-3.313,1.981-5.506,1.981h-3.021l2.686-15.444h3.022c1.88,0,3.334,0.481,4.364,1.444
		c1.029,0.963,1.544,2.384,1.544,4.264C108.238,103.368,108.171,104.039,108.037,104.799z"/>
	<polygon class="st0" points="134.828,92.713 126.77,92.713 122.641,116.214 130.698,116.214 	"/>
	<polygon class="st0" points="172.227,92.713 164.506,92.713 160.367,116.214 168.098,116.214 	"/>
	<polygon class="st0" points="148.256,108.828 148.592,108.828 150.342,116.214 156.981,116.214 151.412,92.713 143.354,92.713 
		139.225,116.214 146.956,116.214 	"/>
	<polygon class="st0" points="192.17,103.457 192.438,103.457 193.154,116.214 201.134,116.214 199.22,92.713 189.148,92.713 
		178.975,116.214 186.843,116.214 	"/>
	<polygon class="st0" points="270.553,188.731 262.83,188.731 258.751,211.896 266.482,211.896 	"/>
	<polygon class="st0" points="257.391,219.618 258.751,211.896 255.226,211.896 257.056,219.618 	"/>
	<polygon class="st0" points="152.414,211.896 148.282,235.397 156.34,235.397 160.472,211.896 	"/>
	<path class="st0" d="M200.664,213.91c0.442-0.598,0.848-1.273,1.224-2.014h-8.425c-0.221,0.317-0.448,0.615-0.688,0.873
		c-1.544,1.657-3.637,2.485-6.278,2.485h-3.693l0.59-3.358h-8.026l-4.121,23.501h8.057l2.56-14.772h4.365l4.989,14.772h9.056
		l-5.988-16.451C196.881,217.828,199.008,216.149,200.664,213.91z"/>
	<polygon class="st0" points="215.234,230.361 218.121,213.91 232.557,213.91 232.91,211.896 210.425,211.896 206.296,235.397 
		230.804,235.397 231.685,230.361 	"/>
	<polygon class="st0" points="262.588,211.896 261.228,219.618 260.893,219.618 259.063,211.896 252.424,211.896 257.993,235.397 
		266.189,235.397 270.319,211.896 	"/>
	<polygon class="st0" points="241.445,211.896 237.316,235.397 245.038,235.397 249.176,211.896 	"/>
	<polygon class="st0" points="92.157,84.892 116.665,84.892 117.605,79.52 101.154,79.52 105.156,56.757 97.1,56.757 	"/>
	<polygon class="st0" points="142.179,67.77 132.846,67.77 137.445,56.757 129.648,56.757 117.47,84.892 125.863,84.892 
		130.832,73.141 142.381,73.141 143.321,84.892 151.714,84.892 149.423,56.757 141.561,56.757 	"/>
	<path class="st0" d="M142.02,156.413c-1.254,7.117-2.899,12.086-4.935,14.906c-2.037,2.821-4.532,4.23-7.487,4.23h-3.693
		l4.858-27.69h-8.048l-5.538,31.383c1.566,0.494,3.245,0.839,5.036,1.041c1.79,0.201,3.961,0.303,6.513,0.303
		c3.805,0,7.094-0.773,9.87-2.317c2.775-1.545,5.125-4.084,7.05-7.621c1.924-3.535,3.401-8.281,4.432-14.235
		c0.557-3.067,0.853-5.91,0.914-8.553h-7.979C142.941,150.174,142.611,153.025,142.02,156.413z"/>
	<polygon class="st0" points="152.83,179.914 177.338,179.914 178.278,174.543 161.827,174.543 164.715,158.092 179.151,158.092 
		180.091,152.721 165.655,152.721 166.514,147.86 158.462,147.86 	"/>
	<polygon class="st0" points="189.483,147.86 183.851,179.914 208.359,179.914 209.299,174.543 192.848,174.543 197.54,147.86 	"/>
	<path class="st0" d="M21.966,24.173h8.057c0.466-2.565,0.758-4.98,0.877-7.248h-8.008C22.758,18.981,22.451,21.393,21.966,24.173z"
		/>
	<path class="st0" d="M30.909,12.944c-0.115-2.124-0.439-3.974-0.981-5.542h-8.575c0.878,1.205,1.396,3.057,1.558,5.542H30.909z"/>
	<path class="st0" d="M16.259,5.036H28.82c-0.38-0.61-0.799-1.168-1.281-1.645C25.256,1.131,21.809,0,17.199,0
		c-2.551,0-4.757,0.101-6.614,0.303C8.727,0.504,6.925,0.851,5.18,1.343L4.528,5.036h8.037H16.259z"/>
	<polygon class="st0" points="4.11,7.402 1.151,24.173 9.208,24.173 12.15,7.402 	"/>
	<polygon class="st0" points="65.543,0.672 41.035,0.672 40.268,5.036 64.779,5.036 	"/>
	<polygon class="st0" points="47.912,7.402 39.852,7.402 38.878,12.944 46.933,12.944 	"/>
	<polygon class="st0" points="36.905,24.173 59.391,24.173 60.037,20.479 45.601,20.479 46.229,16.924 38.179,16.924 	"/>
	<path class="st0" d="M75.413,12.086c0.316-1.933,1.093-3.48,2.279-4.684h-8.738c-0.749,1.392-1.288,2.948-1.598,4.684
		c-0.05,0.3-0.093,0.583-0.131,0.858h8.082C75.328,12.617,75.361,12.322,75.413,12.086z"/>
	<path class="st0" d="M68.263,20.748c0.828,1.433,1.823,2.551,2.988,3.357c0.031,0.022,0.069,0.045,0.101,0.067h15.242
		c-1.141-0.806-2.63-1.701-4.465-2.686c-1.611-0.85-2.853-1.567-3.726-2.149c-0.873-0.581-1.612-1.343-2.216-2.283
		c-0.027-0.042-0.045-0.089-0.07-0.131h-9.017C67.253,18.4,67.641,19.675,68.263,20.748z"/>
	<path class="st0" d="M93.073,5.036l0.672-3.693c-1.03-0.358-2.485-0.672-4.365-0.94C87.499,0.134,85.462,0,83.27,0
		c-4.477,0-8.081,1.074-10.81,3.223c-0.7,0.551-1.33,1.156-1.895,1.813h13.108H93.073z"/>
	<path class="st0" d="M125.912,5.036c-0.38-0.61-0.799-1.168-1.281-1.645C122.347,1.131,118.9,0,114.29,0
		c-2.551,0-4.757,0.101-6.614,0.303c-1.858,0.201-3.659,0.548-5.405,1.041l-0.652,3.693h8.037h3.693H125.912z"/>
	<polygon class="st0" points="109.242,7.402 101.202,7.402 100.224,12.944 108.27,12.944 	"/>
	<polygon class="st0" points="99.522,16.924 98.243,24.173 106.3,24.173 107.571,16.924 	"/>
	<path class="st0" d="M120.004,12.944h7.997c-0.115-2.124-0.439-3.974-0.981-5.542h-8.575
		C119.323,8.607,119.841,10.459,120.004,12.944z"/>
	<path class="st0" d="M119.058,24.173h8.057c0.466-2.565,0.758-4.98,0.877-7.248h-8.008
		C119.849,18.981,119.542,21.393,119.058,24.173z"/>
	<polygon class="st0" points="138.126,0.672 137.36,5.036 161.871,5.036 162.635,0.672 	"/>
	<polygon class="st0" points="145.004,7.402 136.944,7.402 135.97,12.944 144.024,12.944 	"/>
	<polygon class="st0" points="143.321,16.924 135.271,16.924 133.997,24.173 156.482,24.173 157.129,20.479 142.693,20.479 	"/>
	<path class="st0" d="M12.15,7.402h9.204c-0.043-0.059-0.081-0.127-0.126-0.184c-1.165-1.454-2.82-2.183-4.969-2.183h-3.693
		L12.15,7.402z"/>
	<path class="st0" d="M118.319,7.219c-1.165-1.454-2.82-2.183-4.969-2.183h-3.693l-0.415,2.366h9.204
		C118.402,7.343,118.364,7.275,118.319,7.219z"/>
	<polygon class="st0" points="12.565,5.036 4.528,5.036 4.11,7.402 12.15,7.402 	"/>
	<path class="st0" d="M78.166,6.916c1.477-1.252,3.312-1.88,5.506-1.88H70.565c-0.621,0.723-1.153,1.515-1.61,2.366h8.738
		C77.851,7.241,77.992,7.064,78.166,6.916z"/>
	<path class="st0" d="M118.319,7.219c0.045,0.056,0.083,0.124,0.126,0.184h8.575c-0.303-0.876-0.671-1.666-1.108-2.366H113.35
		C115.499,5.036,117.154,5.764,118.319,7.219z"/>
	<polygon class="st0" points="38.878,12.944 38.179,16.924 46.229,16.924 46.933,12.944 	"/>
	<polygon class="st0" points="108.27,12.944 100.224,12.944 99.522,16.924 107.571,16.924 	"/>
	<path class="st0" d="M128.001,12.944h-7.997c0.037,0.558,0.061,1.137,0.061,1.761c0,0.684-0.029,1.428-0.081,2.219h8.008
		c0.041-0.779,0.063-1.542,0.063-2.286C128.055,14.05,128.03,13.494,128.001,12.944z"/>
	<g>
		<polygon class="st0" points="60.958,127.965 60.217,129.717 72.648,129.717 72.507,127.965 		"/>
		<path class="st0" d="M99.164,135.351c2.864,0,5.103-0.705,6.715-2.115c0.13-0.113,0.25-0.241,0.373-0.364H95.91l-0.44,2.48H99.164
			z"/>
		<polygon class="st0" points="185.044,127.965 184.302,129.717 196.732,129.717 196.592,127.965 		"/>
		<polygon class="st0" points="160.367,116.214 159.858,116.214 160.15,117.447 		"/>
		<path class="st0" d="M31.214,125.144c0-2.506,0.29-5.483,0.873-8.93h-8.057c-0.717,3.985-1.074,7.476-1.074,10.475
			c0,1.083,0.058,2.083,0.155,3.028h8.559C31.369,128.44,31.214,126.922,31.214,125.144z"/>
		<path class="st0" d="M33.228,133.068c-0.053-0.06-0.098-0.133-0.149-0.197h-9.4c0.519,1.873,1.315,3.355,2.398,4.427
			c1.118,1.106,2.56,1.905,4.304,2.417h13.168c1.175-0.203,2.176-0.426,2.974-0.672l0.671-3.693h-8.057
			C36.54,135.351,34.571,134.59,33.228,133.068z"/>
		<polygon class="st0" points="79.927,116.214 71.948,116.214 72.306,122.594 62.973,122.594 65.636,116.214 57.769,116.214 
			51.924,129.717 60.217,129.717 60.958,127.965 72.507,127.965 72.648,129.717 81.026,129.717 		"/>
		<polygon class="st0" points="72.9,132.871 73.447,139.715 81.841,139.715 81.283,132.871 		"/>
		<polygon class="st0" points="47.596,139.715 55.989,139.715 58.884,132.871 50.559,132.871 		"/>
		<path class="st0" d="M108.246,129.717h8.486c0.281-0.87,0.519-1.783,0.695-2.759c0.005-0.023,0.006-0.048,0.01-0.071h-8.396
			C108.841,127.925,108.58,128.875,108.246,129.717z"/>
		<path class="st0" d="M102.32,117.558c2.417,0,4.197,0.493,5.338,1.477c1.141,0.985,1.712,2.529,1.712,4.632
			c0,0.209-0.02,0.408-0.027,0.613h8.347c0-0.048,0.007-0.094,0.007-0.142c0-2.283-0.561-4.241-1.679-5.875
			c-0.538-0.785-1.197-1.464-1.962-2.048H90.771l-2.383,13.503h8.082l2.157-12.16H102.32z"/>
		<path class="st0" d="M105.878,133.236c-1.611,1.41-3.85,2.115-6.715,2.115h-3.693l0.44-2.48h-8.079l-1.089,6.172
			c0.853,0.269,1.743,0.49,2.663,0.672h15.872c2.579-0.552,4.727-1.439,6.41-2.686c1.499-1.11,2.723-2.497,3.677-4.158h-9.112
			C106.128,132.995,106.008,133.122,105.878,133.236z"/>
		<polygon class="st0" points="123.146,129.717 131.203,129.717 131.7,126.886 123.643,126.886 		"/>
		<polygon class="st0" points="133.576,116.214 125.518,116.214 124.101,124.28 132.159,124.28 		"/>
		<polygon class="st0" points="121.389,139.715 129.446,139.715 130.649,132.871 122.591,132.871 		"/>
		<polygon class="st0" points="137.973,139.715 145.695,139.715 146.9,132.871 139.176,132.871 		"/>
		<polygon class="st0" points="139.73,129.717 147.456,129.717 147.954,126.886 140.228,126.886 		"/>
		<polygon class="st0" points="149.833,116.214 142.103,116.214 140.686,124.28 148.413,124.28 		"/>
		<polygon class="st0" points="170.976,116.214 163.245,116.214 161.944,123.601 161.609,123.601 160.15,117.447 159.067,123.601 
			158.731,123.601 156.981,116.214 153.22,116.214 155.131,124.28 169.558,124.28 		"/>
		<polygon class="st0" points="155.749,126.886 156.42,129.717 168.603,129.717 169.1,126.886 		"/>
		<polygon class="st0" points="158.789,139.715 166.846,139.715 168.049,132.871 157.167,132.871 		"/>
		<polygon class="st0" points="159.067,123.601 160.15,117.447 159.858,116.214 156.981,116.214 158.731,123.601 		"/>
		<polygon class="st0" points="171.68,139.715 180.073,139.715 182.968,132.871 174.643,132.871 		"/>
		<polygon class="st0" points="205.368,132.871 196.984,132.871 197.532,139.715 205.925,139.715 		"/>
		<polygon class="st0" points="204.012,116.214 196.031,116.214 196.389,122.594 187.058,122.594 189.721,116.214 181.853,116.214 
			176.008,129.717 184.302,129.717 185.044,127.965 196.592,127.965 196.732,129.717 205.111,129.717 		"/>
		<polygon class="st0" points="50.559,132.871 58.884,132.871 60.217,129.717 51.924,129.717 		"/>
		<polygon class="st0" points="139.176,132.871 146.9,132.871 147.456,129.717 139.73,129.717 		"/>
		<polygon class="st0" points="205.111,129.717 196.732,129.717 196.984,132.871 205.368,132.871 		"/>
		<polygon class="st0" points="169.558,124.28 155.131,124.28 155.749,126.886 169.1,126.886 		"/>
	</g>
	<g>
		<path class="st0" d="M192.768,198.737h-10.898l-0.522,2.969h11.344c0.069-0.701,0.107-1.379,0.107-2.031
			C192.799,199.349,192.787,199.038,192.768,198.737z"/>
		<path class="st0" d="M186.554,193.095h-3.693l-0.574,3.267h10.029c-0.254-0.718-0.604-1.308-1.062-1.756
			C190.224,193.599,188.658,193.095,186.554,193.095z"/>
		<polygon class="st0" points="148.577,211.896 156.635,211.896 157.835,205.072 149.777,205.072 		"/>
		<polygon class="st0" points="142.238,188.731 141.298,194.102 151.706,194.102 150.369,201.707 158.426,201.707 159.763,194.102 
			170.171,194.102 171.111,188.731 		"/>
		<path class="st0" d="M192.799,199.676c0,0.652-0.038,1.33-0.107,2.031h8.05c0.117-1.021,0.182-1.952,0.182-2.77
			c0-0.069-0.007-0.131-0.007-0.199h-8.148C192.787,199.038,192.799,199.349,192.799,199.676z"/>
		<polygon class="st0" points="173.838,198.737 173.318,201.707 181.348,201.707 181.869,198.737 		"/>
		<path class="st0" d="M182.861,193.095h3.693c2.103,0,3.67,0.504,4.7,1.511c0.458,0.448,0.808,1.038,1.062,1.756h8.413
			c-0.398-2.503-1.417-4.411-3.063-5.717c-2.172-1.723-5.562-2.585-10.173-2.585c-2.551,0-4.757,0.101-6.614,0.303
			c-1.858,0.201-3.659,0.549-5.405,1.041l-1.22,6.959h8.032L182.861,193.095z"/>
		<polygon class="st0" points="171.531,211.896 179.557,211.896 180.756,205.072 172.728,205.072 		"/>
		<path class="st0" d="M189.626,211.896h8.425c0.926-1.83,1.639-4.118,2.158-6.824h-8.053
			C191.556,208.059,190.713,210.334,189.626,211.896z"/>
		<polygon class="st0" points="215.837,205.072 207.787,205.072 206.588,211.896 229.073,211.896 229.661,208.539 215.225,208.539 
					"/>
		<polygon class="st0" points="217.776,194.102 234.227,194.102 235.167,188.731 210.658,188.731 209.318,196.362 217.377,196.362 
					"/>
		<polygon class="st0" points="208.378,201.707 216.432,201.707 216.957,198.737 208.9,198.737 		"/>
		<polygon class="st0" points="249.737,188.731 241.679,188.731 240.338,196.362 251.545,196.362 		"/>
		<polygon class="st0" points="239.399,201.707 252.812,201.707 252.108,198.737 239.921,198.737 		"/>
		<polygon class="st0" points="246.97,205.072 248.587,211.896 255.226,211.896 253.609,205.072 		"/>
		<polygon class="st0" points="237.609,211.896 245.339,211.896 246.541,205.072 238.808,205.072 		"/>
		<polygon class="st0" points="246.581,204.845 246.541,205.072 246.97,205.072 246.917,204.845 		"/>
		<polygon class="st0" points="172.728,205.072 180.756,205.072 181.348,201.707 173.318,201.707 		"/>
		<path class="st0" d="M192.316,196.362c0.239,0.674,0.392,1.463,0.451,2.376h8.148c-0.009-0.843-0.069-1.637-0.186-2.376H192.316z"
			/>
	</g>
</g>
</svg>