<!-- Generator: Adobe Illustrator 19.2.0, SVG Export Plug-In  -->
<svg version="1.1"
	 xmlns="http://www.w3.org/2000/svg" xmlns:xlink="http://www.w3.org/1999/xlink" xmlns:a="http://ns.adobe.com/AdobeSVGViewerExtensions/3.0/"
	 x="0px" y="0px" width="57.4px" height="90px" viewBox="0 0 57.4 90" style="enable-background:new 0 0 57.4 90;"
	 xml:space="preserve">
<style type="text/css">
	.st0{fill:#FFFFFF;}
</style>
<defs>
</defs>
<g>
	<path class="st0" d="M37.1,5.7c8,0,14.6,6.5,14.6,14.6v41c0,12.7-10.3,23-23,23s-23-10.3-23-23v-41c0-8,6.5-14.6,14.6-14.6
		L37.1,5.7 M37.1,0H20.3C9.1,0,0,9.1,0,20.3v41C0,77.1,12.8,90,28.7,90l0,0c15.9,0,28.7-12.9,28.7-28.7v-41C57.4,9.1,48.3,0,37.1,0
		L37.1,0z"/>
</g>
<g>
	<path class="st0" d="M28.7,47.5c-0.3,0-0.7-0.1-1-0.3L18.9,41c-0.8-0.5-1-1.6-0.4-2.4c0.5-0.8,1.6-1,2.4-0.4l7.8,5.5l7.8-5.5
		c0.8-0.5,1.8-0.4,2.4,0.4c0.5,0.8,0.4,1.8-0.4,2.4l-8.8,6.2C29.4,47.4,29,47.5,28.7,47.5z"/>
</g>
<g>
	<path class="st0" d="M28.8,60.8c-0.3,0-0.7-0.1-1-0.3L19,54.3c-0.8-0.5-1-1.6-0.4-2.4c0.5-0.8,1.6-1,2.4-0.4l7.8,5.5l7.8-5.5
		c0.8-0.5,1.8-0.4,2.4,0.4c0.5,0.8,0.4,1.8-0.4,2.4l-8.8,6.2C29.5,60.7,29.2,60.8,28.8,60.8z"/>
</g>
<g>
	<path class="st0" d="M28.7,73.8c-0.3,0-0.7-0.1-1-0.3l-8.8-6.2c-0.8-0.5-1-1.6-0.4-2.4s1.6-1,2.4-0.4l7.8,5.5l7.8-5.5
		c0.8-0.5,1.8-0.4,2.4,0.4c0.5,0.8,0.4,1.8-0.4,2.4l-8.8,6.2C29.4,73.7,29,73.8,28.7,73.8z"/>
</g>
<path class="st0" d="M28.7,31.3c-1.9,0-3.4-1.5-3.4-3.4v-7.5c0-1.9,1.5-3.4,3.4-3.4s3.4,1.5,3.4,3.4v7.5
	C32.1,29.8,30.6,31.3,28.7,31.3z"/>
</svg>